<?xml version="1.0" encoding="utf-8"?>
<!-- Generator: Adobe Illustrator 21.0.2, SVG Export Plug-In . SVG Version: 6.00 Build 0)  -->
<svg version="1.1" id="Layer_1" xmlns="http://www.w3.org/2000/svg" xmlns:xlink="http://www.w3.org/1999/xlink" x="0px" y="0px"
	 viewBox="0 0 256 256" style="enable-background:new 0 0 256 256;" xml:space="preserve">
<style type="text/css">
	.st0{fill:#FF9966;}
	.st1{fill:#231F20;}
	.st2{fill:#FFFFFF;}
	.st3{fill:none;stroke:#000000;stroke-width:6;stroke-miterlimit:10;}
	.st4{fill:none;stroke:#FFFFFF;stroke-width:6;stroke-miterlimit:10;}
</style>
<title>Custom Products for WooCommerce by Grega Radelj</title>
<g id="Layer_2">
	<g id="Layer_1-2">
		<rect x="0.5" y="0.5" class="st0" width="255" height="255"/>
		<path d="M255,1v254H1V1H255 M256,0H0v256h256V0z"/>
		<g id="Layer_2-2">
			<g id="Layer_7">
				<path id="_Path_" class="st1" d="M78.4,116.3"/>
				<path id="_Compound_Path_" d="M145,116.9c-1.7-14.7-7.9-53.8-22.6-68.3c-4-4.1-9.4-6.5-15.1-6.6h-0.6
					c-5.7,0.1-11.2,2.4-15.1,6.6C76.8,63.2,70.6,102.3,68.9,117C9.1,125.9,21,219.1,21,219.1h172.5
					C193.5,219.1,205.4,125.3,145,116.9z M107.3,116.3H78.4c-0.7,0-1.4,0-2,0c1.9-14.5,7.8-50.2,20.3-62.5c5.3-5.7,14.3-6,20-0.6
					c0.2,0.2,0.4,0.4,0.6,0.6c12.5,12.3,18.3,48,20.3,62.5H136L107.3,116.3z"/>
				<rect id="_Rectangle_" x="86" y="148.4" class="st2" width="42.5" height="36.5"/>
				<line id="_Path_2" class="st3" x1="120.6" y1="166.7" x2="93.8" y2="166.7"/>
				<circle id="_Path_3" cx="107.2" cy="157.8" r="4.4"/>
				<path id="_Path_4" class="st1" d="M152.3,61.9"/>
				<polygon id="_Path_5" class="st2" points="137.5,61.1 140.5,64 152.3,61.9 175.5,38.6 162.9,26 139.7,49.2 				"/>
				
					<ellipse id="_Path_6" transform="matrix(0.7071 -0.7071 0.7071 0.7071 4.5902 119.9606)" class="st0" cx="147.1" cy="54.4" rx="4.1" ry="4.1"/>
				<line id="_Path_7" class="st4" x1="140.2" y1="61.5" x2="129.1" y2="71.9"/>
				<path id="_Path_8" d="M208.5,203.7"/>
				<polygon id="_Path_9" class="st2" points="202.9,190 201.3,193.9 207.8,204 238.2,216.5 245,200 214.6,187.4 				"/>
				
					<ellipse id="_Path_10" transform="matrix(0.3598 -0.933 0.933 0.3598 -46.3624 324.3326)" class="st0" cx="213.2" cy="196" rx="4.1" ry="4.1"/>
				<line id="_Path_11" class="st4" x1="204.5" y1="192.6" x2="192.3" y2="186.4"/>
				<path id="_Path_12" class="st1" d="M74.9,156.7"/>
				<polygon id="_Path_13" class="st2" points="73.3,171.5 76.4,168.7 74.9,156.7 53,132.3 39.6,144.2 61.6,168.7 				"/>
				
					<ellipse id="_Path_14" transform="matrix(0.7445 -0.6676 0.6676 0.7445 -90.6761 86.1116)" cx="67.2" cy="161.5" rx="4.1" ry="4.1"/>
				<path id="_Path_15" class="st4" d="M72,167.2c3.2,4.6,8.4,7.2,14,7.1"/>
			</g>
		</g>
	</g>
</g>
</svg>
